<svg xmlns="http://www.w3.org/2000/svg" xmlns:xlink="http://www.w3.org/1999/xlink" width="49.8304443359375" height="20.830001831054688" viewBox="0 0 49.8304443359375 20.830001831054688" fill="none">
<path   fill-rule="evenodd"  fill="#FF4E45"  d="M11.2304 20.83C7.681 20.83 5.45044 20.06 5.45044 20.06C3.22172 19.2896 2.04044 17.98 2.04044 17.98C0.857294 16.673 0.410441 15.05 0.410441 15.05C-0.0297997 13.4266 0.000441215 11.69 0.000441215 11.69L0.000441215 4.55C0.000441215 2.34086 1.7913 0.55 4.00044 0.55L6.82044 0.55L6.82044 11.25C6.82044 11.3325 6.82044 11.47 6.82044 11.47C6.82044 12.0203 6.89044 12.67 6.89044 12.67C6.95923 13.3166 7.36044 13.92 7.36044 13.92C7.75941 14.5253 8.68044 14.91 8.68044 14.91C9.6022 15.2952 11.3104 15.3 11.3104 15.3C13.1815 15.3 14.2104 14.9 14.2104 14.9C15.2423 14.501 15.6804 13.87 15.6804 13.87C16.1207 13.2372 16.2104 12.52 16.2104 12.52C16.293 11.8046 16.2904 11.17 16.2904 11.17C16.2904 11.0599 16.2904 11.01 16.2904 11.01L16.2904 0.55L23.1104 0.55L23.1104 11.5C23.0829 13.2334 22.5204 14.9 22.5204 14.9C21.9564 16.5647 20.6404 17.9 20.6404 17.9C19.3197 19.2345 17.0204 20.03 17.0204 20.03C14.7229 20.8279 11.2304 20.83 11.2304 20.83ZM37.5604 20.83C33.2131 20.83 30.5104 19.54 30.5104 19.54C27.814 18.2468 26.5704 15.89 26.5704 15.89C25.3185 13.5375 25.3104 10.4 25.3104 10.4C25.3104 7.2908 26.5404 4.95 26.5404 4.95C27.7649 2.61122 30.4604 1.31 30.4604 1.31C33.1569 0.00303543 37.5604 0 37.5604 0C41.9904 0 44.6804 1.31 44.6804 1.31C47.3769 2.61696 48.6104 4.95 48.6104 4.95C49.8349 7.28878 49.8304 10.4 49.8304 10.4C49.8304 13.5642 48.6104 15.9 48.6104 15.9C47.386 18.2388 44.6804 19.54 44.6804 19.54C41.984 20.8332 37.5604 20.83 37.5604 20.83ZM37.5604 15.22C40.6696 15.22 41.9904 14.02 41.9904 14.02C43.3112 12.8231 43.3104 10.4 43.3104 10.4C43.3104 8.03371 41.9904 6.82 41.9904 6.82C40.6697 5.60934 37.5604 5.61 37.5604 5.61C34.4788 5.61 33.1604 6.82 33.1604 6.82C31.8397 8.03066 31.8404 10.4 31.8404 10.4C31.8404 12.7938 33.1604 14.01 33.1604 14.01C34.4812 15.2207 37.5604 15.22 37.5604 15.22Z">
</path>
</svg>
